<svg width="1090" height="793" viewBox="0 0 1090 793" fill="none" xmlns="http://www.w3.org/2000/svg">
<path d="M848 338C848 338 868.457 262.351 870.871 230.04C872.566 208.957 874.95 188.216 878 168" stroke="#535461" stroke-width="2" stroke-miterlimit="10"/>
<path d="M882 233L870 235.546C870 235.546 876.364 262.939 882 233Z" fill="#F9A826"/>
<path d="M860.416 216L870 234.7C870 234.7 857.599 246.668 860.416 216Z" fill="#F9A826"/>
<path d="M884 206L872 209.544C872 209.544 882.581 228.478 884 206Z" fill="#F9A826"/>
<path d="M865.173 196L872 208.99C872 208.99 863.712 218.541 865.173 196Z" fill="#F9A826"/>
<path d="M875 184.715C875 184.715 884.095 178.908 885.406 180.183C886.718 181.458 885.935 195.338 882.264 195.975C878.593 196.613 875 184.715 875 184.715Z" fill="#F9A826"/>
<path d="M869.145 168C869.145 168 874.734 181.802 874.99 185.191C875.246 188.581 870.417 196.366 867.874 185.191C865.331 174.017 869.145 168 869.145 168Z" fill="#F9A826"/>
<path d="M880 176C881.657 176 883 173.09 883 169.5C883 165.91 881.657 163 880 163C878.343 163 877 165.91 877 169.5C877 173.09 878.343 176 880 176Z" fill="#FFD037"/>
<path d="M875 173C876.657 173 878 170.09 878 166.5C878 162.91 876.657 160 875 160C873.343 160 872 162.91 872 166.5C872 170.09 873.343 173 875 173Z" fill="#FFD037"/>
<path d="M998.558 20C998.558 20 978.208 68.9486 989.7 141.565C1001.19 214.181 970 335 970 335L971.001 334.615C1012.79 316.87 1033.56 201.878 1010.32 116.477C1001.64 84.7191 994.544 47.4719 998.558 20Z" fill="#F9A826"/>
<path d="M998.324 20C998.324 20 986.937 80 998.324 128.949C1009.71 177.897 1000.31 315.257 970 335" stroke="#535461" stroke-miterlimit="10"/>
<path d="M1035 217.611C1035 217.611 1011.77 208.707 1009.66 258.872C1007.55 309.036 965 315.985 965 315.985L965.801 317.264C1000.92 372.76 1034.5 352.661 1029.44 278.875C1027.52 251.44 1027.71 223.885 1035 217.611Z" fill="#F9A826"/>
<path opacity="0.2" d="M1035 217.611C1035 217.611 1011.77 208.707 1009.66 258.872C1007.55 309.036 965 315.985 965 315.985L965.801 317.264C1000.92 372.76 1034.5 352.661 1029.44 278.875C1027.52 251.44 1027.71 223.885 1035 217.611Z" fill="#F5F5F5"/>
<path d="M1035 218C1035 218 1016.98 227.647 1018.45 267.029C1019.92 306.412 991.68 353.85 965 316.324" stroke="#535461" stroke-miterlimit="10"/>
<path d="M843.472 280C843.472 280 837.196 229.258 844.644 191.899C847.815 176.284 848.773 158.637 847.372 141.614C846.663 133.541 845.649 125.637 844.341 118" stroke="#535461" stroke-width="2" stroke-miterlimit="10"/>
<path d="M849 95.0975C849 101.239 844.5 119 844.5 119C844.5 119 840 101.239 840 95.0975C840 92.1543 840.474 89.3316 841.318 87.2504C842.162 85.1692 843.307 84 844.5 84C845.693 84 846.838 85.1692 847.682 87.2504C848.526 89.3316 849 92.1543 849 95.0975Z" fill="#F9A826"/>
<path d="M857.187 129.176C855.819 134.252 848 143 848 143C848 143 848.137 122.346 849.515 117.27C849.832 116.017 850.252 114.93 850.748 114.072C851.245 113.214 851.808 112.603 852.405 112.276C853.001 111.949 853.62 111.912 854.223 112.167C854.825 112.422 855.401 112.965 855.914 113.762C856.428 114.559 856.87 115.595 857.213 116.808C857.556 118.021 857.794 119.387 857.913 120.825C858.032 122.262 858.029 123.742 857.904 125.176C857.779 126.611 857.536 127.971 857.187 129.176Z" fill="#F9A826"/>
<path d="M856.552 188.476C854.366 191.287 846 189.348 846 189.348C846 189.348 850.354 171.024 852.55 168.212C853.604 166.859 854.825 166.629 855.946 167.572C857.066 168.515 857.994 170.555 858.525 173.242C859.055 175.929 859.146 179.044 858.776 181.9C858.406 184.757 857.606 187.123 856.552 188.476Z" fill="#F9A826"/>
<path d="M852.058 232.676C850.128 236.386 842 238 842 238C842 238 845.006 218.199 846.936 214.489C847.392 213.537 847.917 212.834 848.481 212.422C849.044 212.01 849.633 211.898 850.214 212.093C850.794 212.287 851.353 212.784 851.858 213.554C852.362 214.323 852.801 215.35 853.149 216.571C853.497 217.793 853.746 219.184 853.882 220.662C854.017 222.14 854.037 223.674 853.938 225.171C853.84 226.669 853.626 228.099 853.309 229.376C852.992 230.654 852.579 231.752 852.095 232.604L852.058 232.676Z" fill="#F9A826"/>
<path d="M838.256 145.149C839.983 149.49 848 154 848 154C848 154 846.04 133.307 844.284 128.965C843.451 126.982 842.352 125.92 841.221 126.005C840.091 126.09 839.018 127.316 838.23 129.422C837.441 131.527 837 134.348 837 137.284C837 140.221 837.44 143.042 838.228 145.149H838.256Z" fill="#F9A826"/>
<path d="M832.733 196.476C835.076 199.293 844 197.342 844 197.342C844 197.342 839.345 179.162 837.013 176.368C836.455 175.648 835.841 175.201 835.209 175.054C834.577 174.907 833.939 175.062 833.332 175.512C832.726 175.961 832.164 176.695 831.679 177.669C831.194 178.644 830.797 179.84 830.51 181.186C830.224 182.533 830.054 184.002 830.011 185.507C829.968 187.012 830.053 188.522 830.26 189.947C830.467 191.373 830.793 192.686 831.218 193.807C831.643 194.928 832.158 195.836 832.733 196.476Z" fill="#F9A826"/>
<path d="M831.064 248.623C833.155 252.336 842 254 842 254C842 254 838.743 234.205 836.653 230.492C836.159 229.539 835.59 228.835 834.979 228.423C834.369 228.01 833.731 227.898 833.102 228.093C832.473 228.287 831.867 228.785 831.321 229.555C830.774 230.325 830.298 231.353 829.922 232.576C829.545 233.798 829.275 235.191 829.128 236.67C828.981 238.149 828.96 239.684 829.067 241.183C829.174 242.682 829.406 244.114 829.749 245.392C830.092 246.671 830.539 247.77 831.064 248.623Z" fill="#F9A826"/>
<path d="M830 275.732C830 275.732 841.466 270.287 844.516 263.043C847.567 255.799 861.336 243.062 862.861 252.153C864.387 261.244 883.489 292.067 870.498 297.512C857.507 302.957 839.93 304.708 836.152 301.134C832.374 297.56 830 275.732 830 275.732Z" fill="#A8A8A8"/>
<path opacity="0.2" d="M871.537 297.941C858.521 303.489 840.909 305.273 837.124 301.656C834.209 298.821 832.184 285.305 831.385 279L831 279.196C831 279.196 833.298 301.387 837.073 305.077C840.848 308.767 858.511 306.935 871.486 301.387C875.252 299.774 876.325 296.034 875.92 291.269C875.586 294.373 874.3 296.768 871.537 297.941Z" fill="black"/>
<path d="M90.8168 102.542C106.149 157.012 101.258 352 101.258 352C101.258 352 24.2484 290.622 8.86648 236.153C5.12463 223.21 2.48775 208.607 1.10876 193.193C-0.270225 177.778 -0.36388 161.858 0.833231 146.355C2.03034 130.853 4.49439 116.077 8.08249 102.884C11.6706 89.6906 16.3113 78.3433 21.7356 69.4997C27.1598 60.6561 33.2597 54.4922 39.6813 51.3655C46.103 48.2388 52.7187 48.2114 59.1448 51.2851C65.5708 54.3588 71.6794 60.4724 77.1162 69.2713C82.553 78.0701 87.2099 89.379 90.8168 102.542Z" fill="#F9A826"/>
<path opacity="0.1" d="M90.8168 102.542C106.149 157.012 101.258 352 101.258 352C101.258 352 24.2484 290.622 8.86648 236.153C5.12463 223.21 2.48775 208.607 1.10876 193.193C-0.270225 177.778 -0.36388 161.858 0.833231 146.355C2.03034 130.853 4.49439 116.077 8.08249 102.884C11.6706 89.6906 16.3113 78.3433 21.7356 69.4997C27.1598 60.6561 33.2597 54.4922 39.6813 51.3655C46.103 48.2388 52.7187 48.2114 59.1448 51.2851C65.5708 54.3588 71.6794 60.4724 77.1162 69.2713C82.553 78.0701 87.2099 89.379 90.8168 102.542Z" fill="black"/>
<path d="M22 70C22 70 79.616 177.554 101 352" stroke="#535461" stroke-miterlimit="10"/>
<path d="M115.988 203.495C115.988 203.495 74.5827 186.544 102.91 351C102.91 351 131.682 324.701 133.924 259.267C134.369 246.536 132.852 233.856 129.66 223.627C126.468 213.398 121.823 206.33 116.604 203.762L115.988 203.495Z" fill="#F9A826"/>
<path d="M116.598 204C116.598 204 124.446 294.513 103 351" stroke="#535461" stroke-miterlimit="10"/>
<path d="M966.426 201C966.426 201 972.022 218.184 963.837 244.02C955.652 269.856 948.904 291.82 951.605 308C951.605 308 963.949 259.842 974.03 259.172C984.111 258.503 977.475 229.967 966.426 201Z" fill="#F9A826"/>
<path opacity="0.1" d="M966.264 201C966.753 202.669 967.141 204.485 967.418 206.398C977.333 233.387 982.61 258.584 973.087 259.205C964.203 259.802 953.504 296.584 951 305.874C951.088 306.595 951.191 307.304 951.309 308C951.309 308 963.79 259.874 973.983 259.205C984.176 258.536 977.436 229.947 966.264 201Z" fill="black"/>
<path d="M977 222.951C977 229.055 976.543 234 975.992 234C975.441 234 975 229.175 975 222.951C975 216.727 975.567 219.719 976.118 219.719C976.669 219.719 977 216.848 977 222.951Z" fill="#FFD037"/>
<path d="M979.81 230.032C977.857 232.854 976.16 234.557 976.01 233.834C975.861 233.111 977.33 230.265 979.282 227.443C981.235 224.621 980.461 226.674 980.61 227.443C980.76 228.213 981.762 227.21 979.81 230.032Z" fill="#FFD037"/>
<path d="M937.133 201C937.133 201 931.735 218.184 939.62 244.02C947.504 269.856 954.022 291.82 951.417 308C951.417 308 939.502 259.842 929.789 259.172C920.075 258.503 926.466 229.967 937.133 201Z" fill="#F9A826"/>
<path opacity="0.1" d="M937.285 201C936.808 202.662 936.433 204.48 936.171 206.398C926.606 233.387 921.506 258.584 930.703 259.205C939.263 259.802 949.594 296.584 952 305.874C951.919 306.594 951.823 307.304 951.712 308C951.712 308 939.661 259.874 929.838 259.205C920.014 258.536 926.497 229.947 937.285 201Z" fill="black"/>
<path d="M927 222.951C927 229.055 927.222 234 927.5 234C927.778 234 928 229.175 928 222.951C928 216.727 927.722 219.719 927.444 219.719C927.167 219.719 927 216.848 927 222.951Z" fill="#FFD037"/>
<path d="M923.419 230.032C925.761 232.854 927.808 234.557 927.987 233.834C928.167 233.111 926.405 230.265 924.063 227.443C921.72 224.621 922.638 226.674 922.47 227.443C922.301 228.213 921.077 227.21 923.419 230.032Z" fill="#FFD037"/>
<path d="M929 306.022C929 306.022 944.315 304.864 948.941 296.927C953.568 288.989 972.502 279.483 973.649 292.222C974.795 304.961 996.661 355.65 979.372 355.988C962.083 356.326 939.2 349.474 934.594 342.694C929.987 335.915 929 306.022 929 306.022Z" fill="#A8A8A8"/>
<path opacity="0.2" d="M979.682 351.595C962.386 351.933 939.494 345.078 934.885 338.295C931.374 333.13 929.978 314.569 929.509 306H929C929 306 929.998 335.882 934.576 342.688C939.154 349.495 962.076 356.326 979.373 355.988C984.36 355.988 986.096 351.595 985.996 345.247C985.298 349.181 983.403 351.595 979.682 351.595Z" fill="black"/>
</svg>
