<svg width="1098" height="812" viewBox="0 0 1098 812" fill="none" xmlns="http://www.w3.org/2000/svg">
<g clip-path="url(#clip0)">
<path opacity="0.08" d="M11.85 429.97C29.21 504.17 65.96 568.31 124.04 599.4C244.74 664.01 516.95 630.69 720.11 592.4C822.76 573.124 915.936 519.866 984.64 441.2L11.85 429.97Z" fill="#FC6681"/>
<path opacity="0.1" d="M1077.2 80.71H965.73C963.175 80.71 960.724 79.6949 958.917 77.888C957.11 76.081 956.095 73.6304 956.095 71.075C956.095 68.5196 957.11 66.0689 958.917 64.262C960.724 62.4551 963.175 61.44 965.73 61.44H985C982.445 61.44 979.994 60.4249 978.187 58.618C976.38 56.811 975.365 54.3603 975.365 51.805C975.365 49.2496 976.38 46.7989 978.187 44.992C979.994 43.1851 982.445 42.17 985 42.17H971.24C968.685 42.17 966.234 41.1549 964.427 39.348C962.62 37.541 961.605 35.0903 961.605 32.535C961.605 29.9796 962.62 27.5289 964.427 25.722C966.234 23.9151 968.685 22.9 971.24 22.9H1029.42C1016.51 16.9 1001.42 12.63 984.04 10.39C825.4 -9.99001 768.76 3.48999 748.78 17.39C724.13 34.49 696.63 47.07 667.24 53.13C569.35 73.3 386.3 97.6 220.39 45.33C137.93 19.33 76.64 63.25 39.91 136.61H1096.55C1095.17 115.29 1091.04 95.61 1083.46 78.37C1081.72 79.8761 1079.5 80.7067 1077.2 80.71Z" fill="#FC6681"/>
<path opacity="0.1" d="M2.39003 275.1C-1.88946 318.255 -0.43346 361.787 6.72003 404.56L985.4 440.35C1012.64 409.011 1035.52 374.127 1053.4 336.65L2.39003 275.1ZM389.47 367.45H370.2C372.755 367.45 375.206 368.465 377.013 370.272C378.82 372.079 379.835 374.53 379.835 377.085C379.835 379.64 378.82 382.091 377.013 383.898C375.206 385.705 372.755 386.72 370.2 386.72H258.73C256.175 386.72 253.724 385.705 251.917 383.898C250.11 382.091 249.095 379.64 249.095 377.085C249.095 374.53 250.11 372.079 251.917 370.272C253.724 368.465 256.175 367.45 258.73 367.45H278C275.445 367.45 272.994 366.435 271.187 364.628C269.38 362.821 268.365 360.37 268.365 357.815C268.365 355.26 269.38 352.809 271.187 351.002C272.994 349.195 275.445 348.18 278 348.18H264.24C261.685 348.18 259.234 347.165 257.427 345.358C255.62 343.551 254.605 341.1 254.605 338.545C254.605 335.99 255.62 333.539 257.427 331.732C259.234 329.925 261.685 328.91 264.24 328.91H375.71C378.265 328.91 380.716 329.925 382.523 331.732C384.33 333.539 385.345 335.99 385.345 338.545C385.345 341.1 384.33 343.551 382.523 345.358C380.716 347.165 378.265 348.18 375.71 348.18H389.47C392.025 348.18 394.476 349.195 396.283 351.002C398.09 352.809 399.105 355.26 399.105 357.815C399.105 360.37 398.09 362.821 396.283 364.628C394.476 366.435 392.025 367.45 389.47 367.45Z" fill="#FC6681"/>
<path opacity="0.1" d="M1096.6 137.28L28.11 163.28C15.12 196.69 6.54999 234.46 2.54999 273.61H1077.88C1084.9 250.612 1090.09 227.096 1093.41 203.28C1096.61 180.27 1097.89 158.01 1096.6 137.28ZM219.47 222.45H200.2C202.755 222.45 205.206 223.465 207.013 225.272C208.82 227.079 209.835 229.53 209.835 232.085C209.835 234.64 208.82 237.091 207.013 238.898C205.206 240.705 202.755 241.72 200.2 241.72H88.73C86.1746 241.72 83.7239 240.705 81.917 238.898C80.1101 237.091 79.095 234.64 79.095 232.085C79.095 229.53 80.1101 227.079 81.917 225.272C83.7239 223.465 86.1746 222.45 88.73 222.45H108C105.445 222.45 102.994 221.435 101.187 219.628C99.3801 217.821 98.365 215.37 98.365 212.815C98.365 210.26 99.3801 207.809 101.187 206.002C102.994 204.195 105.445 203.18 108 203.18H94.24C91.6846 203.18 89.2339 202.165 87.427 200.358C85.6201 198.551 84.605 196.1 84.605 193.545C84.605 190.99 85.6201 188.539 87.427 186.732C89.2339 184.925 91.6846 183.91 94.24 183.91H205.71C208.265 183.91 210.716 184.925 212.523 186.732C214.33 188.539 215.345 190.99 215.345 193.545C215.345 196.1 214.33 198.551 212.523 200.358C210.716 202.165 208.265 203.18 205.71 203.18H219.47C222.025 203.18 224.476 204.195 226.283 206.002C228.09 207.809 229.105 210.26 229.105 212.815C229.105 215.37 228.09 217.821 226.283 219.628C224.476 221.435 222.025 222.45 219.47 222.45V222.45Z" fill="#FC6681"/>
<path d="M936.13 806.491C936.13 806.491 891.569 567.361 806.597 528.556C734.595 495.651 656.733 473.47 634.593 467.452C631.286 462.242 627.465 457.362 623.182 452.883C592.922 421.974 574.741 422.552 571.801 422.933C570.406 416.804 569.404 410.595 568.801 404.343C568.711 403.365 568.621 402.455 568.541 401.486L568.801 401.359C568.621 399.509 568.461 397.601 568.321 395.635C580.674 389.184 592.047 381.08 602.112 371.555C602.242 371.976 602.352 372.397 602.492 372.827C624.299 354.792 645.656 336.266 666.563 317.252C672.564 311.763 678.864 305.804 680.904 298.065C681.557 295.402 681.81 292.659 681.654 289.924C681.924 284.054 680.504 278.056 680.264 272.107C680.264 271.128 680.374 270.219 680.504 269.289C681.904 259.554 688.824 251.56 694.504 243.39C708.695 222.743 716.102 198.349 715.735 173.47C715.89 161.55 714.204 149.675 710.735 138.247C706.305 123.746 697.084 108.512 681.734 105.342C675.794 104.119 669.624 104.882 663.563 104.5C638.473 102.935 619.692 82.9747 599.682 68.347C575.259 50.5806 546.377 39.6127 516.1 36.6064C506.649 35.628 496.889 35.5595 487.899 38.4948C467.708 45.0699 455.448 65.3726 435.997 73.7186C421.617 79.9219 404.997 78.9141 389.996 83.5715C367.666 90.5184 383.131 111.477 382.63 134.5C382.63 135.351 393.546 130.499 359.13 114.5C393.546 149.469 391.706 154.5 357.29 138.932C385.706 167 361.29 162.414 361.63 174.322C361.63 175.398 368.412 177.917 368.446 179C368.336 191.857 379.601 201.103 368.446 212C365.866 218.507 389.456 223.493 389.996 230C389.696 233.982 350.3 245.957 353.13 249V240C357.29 240 357.332 254.738 357.336 263.462C357.336 307.433 371.89 349.004 404.13 375.5C404.317 378.429 399.543 384.451 399.717 387.798C400.477 402.298 401.077 420.487 400.907 440.31L353.745 482.726L232.502 536.54C232.502 536.54 121.619 559.455 145.5 711.866L156.9 806.501H258.133L257.903 807H408.157L408.247 806.501H765.736L765.666 807H779.666V806.501L936.13 806.491ZM572.691 425.36C575.756 431.562 578.168 438.053 579.891 444.733C576.353 438.305 573.738 431.43 572.121 424.303L572.271 424.567L572.691 425.36ZM400.867 444.929C400.867 446.794 400.833 448.676 400.767 450.574L400.527 450.907C400.51 448.893 400.624 446.88 400.867 444.88V444.929Z" fill="#6100FF" fill-opacity="0.6"/>
<path d="M614.8 466.3L594.8 657.3L487.8 691.3C487.8 691.3 348.8 665.3 384.8 590.3C410.41 536.95 409.7 441.61 407.16 391.01C406.16 370.47 404.8 357.3 404.8 357.3C404.8 357.3 586.8 198.3 571.8 341.3C568.9 368.99 568.73 390.64 570.34 407.56C577.09 478 614.8 466.3 614.8 466.3Z" fill="#FDC2CC"/>
<path opacity="0.03" d="M614.8 466.3L594.8 657.3L487.8 691.3C487.8 691.3 348.8 665.3 384.8 590.3C410.41 536.95 409.7 441.61 407.16 391.01C406.16 370.47 404.8 357.3 404.8 357.3C404.8 357.3 586.8 198.3 571.8 341.3C568.9 368.99 568.73 390.64 570.34 407.56C577.09 478 614.8 466.3 614.8 466.3Z" fill="black"/>
<path opacity="0.1" d="M571.8 338.3C568.9 365.99 568.73 387.64 570.34 404.56C544.646 418.587 515.31 424.513 486.187 421.56C457.063 418.606 429.514 406.91 407.16 388.01C406.16 367.47 404.8 354.3 404.8 354.3C404.8 354.3 586.8 195.3 571.8 338.3Z" fill="black"/>
<path d="M500.8 416.31C580.881 416.31 645.8 351.391 645.8 271.31C645.8 191.229 580.881 126.31 500.8 126.31C420.719 126.31 355.8 191.229 355.8 271.31C355.8 351.391 420.719 416.31 500.8 416.31Z" fill="#FDC2CC"/>
<path opacity="0.03" d="M500.8 416.31C580.881 416.31 645.8 351.391 645.8 271.31C645.8 191.229 580.881 126.31 500.8 126.31C420.719 126.31 355.8 191.229 355.8 271.31C355.8 351.391 420.719 416.31 500.8 416.31Z" fill="black"/>
<path opacity="0.1" d="M261.8 659.3C261.8 659.3 308.8 755.3 311.3 811.8Z" fill="black"/>
<path opacity="0.1" d="M773.8 714.31L760.3 811.81H773.8V714.31Z" fill="black"/>
<path opacity="0.1" d="M272.3 811.8L346.8 642.3C346.8 642.3 367.8 602.3 372.8 562.3C377.8 522.3 404.8 459.3 404.8 459.3C404.8 459.3 471.8 374.3 502.8 386.3C533.8 398.3 475.8 443.3 475.8 443.3C475.8 443.3 560.8 476.3 502.8 574.3C444.8 672.3 443.8 654.3 443.8 654.3L415.3 811.8H272.3Z" fill="black"/>
<path d="M270.3 811.8L344.8 642.3C344.8 642.3 365.8 602.3 370.8 562.3C373.98 536.87 386.05 502.14 394.42 480.21C399.883 465.873 407.922 452.656 418.14 441.21C439.8 416.97 479.14 377.88 500.8 386.28C531.8 398.28 473.8 443.28 473.8 443.28C473.8 443.28 558.8 476.28 500.8 574.28C442.8 672.28 441.8 654.28 441.8 654.28L413.3 811.78L270.3 811.8Z" fill="#FDC2CC"/>
<path opacity="0.15" d="M545.3 192.81C546.957 192.81 548.3 191.467 548.3 189.81C548.3 188.153 546.957 186.81 545.3 186.81C543.643 186.81 542.3 188.153 542.3 189.81C542.3 191.467 543.643 192.81 545.3 192.81Z" fill="white"/>
<path opacity="0.15" d="M531.3 198.81C532.957 198.81 534.3 197.467 534.3 195.81C534.3 194.153 532.957 192.81 531.3 192.81C529.643 192.81 528.3 194.153 528.3 195.81C528.3 197.467 529.643 198.81 531.3 198.81Z" fill="white"/>
<path opacity="0.1" d="M397.79 88.58C412.26 83.9 428.32 84.91 442.2 78.69C460.97 70.27 472.8 49.89 492.28 43.29C500.96 40.35 510.38 40.46 519.49 41.4C548.785 44.4488 576.683 55.4718 600.15 73.27C619.46 87.96 637.58 107.99 661.79 109.56C667.64 109.94 673.59 109.17 679.32 110.4C694.16 113.58 703.05 128.87 707.32 143.4C712.26 160.62 713.418 178.704 710.715 196.413C708.012 214.123 701.512 231.038 691.66 246C686.18 254.2 679.5 262.23 678.15 272C676.83 281.58 680.91 291.51 678.53 300.89C676.53 308.66 670.53 314.64 664.69 320.15C644.523 339.223 623.913 357.807 602.86 375.9C591.92 341.14 607.97 303.71 605.47 267.36C604.47 253.2 599.47 237.74 586.98 231.06C575.29 224.82 560.35 228.06 548.52 222.06C535.32 215.41 529.9 199.66 519.92 188.76C502.92 170.16 473.41 167.76 449.64 176.16C425.87 184.56 406.44 201.84 387.64 218.69L353.47 249.34C346.8 241.82 351.86 230.28 355.47 220.88C360.85 206.79 362.03 191.6 361.67 176.64C361.38 164.64 357.24 152.79 357.48 141.11C357.96 118.07 376.24 95.55 397.79 88.58Z" fill="black"/>
<path d="M397.79 85.58C412.26 80.9 428.32 81.91 442.2 75.69C460.97 67.27 472.8 46.89 492.28 40.29C500.96 37.35 510.38 37.46 519.49 38.4C548.785 41.4488 576.683 52.4718 600.15 70.27C619.46 84.96 637.58 104.99 661.79 106.56C667.64 106.94 673.59 106.17 679.32 107.4C694.16 110.58 703.05 125.87 707.32 140.4C712.26 157.62 713.418 175.704 710.715 193.413C708.012 211.123 701.512 228.038 691.66 243C686.18 251.2 679.5 259.23 678.15 269C676.83 278.58 680.91 288.51 678.53 297.89C676.53 305.66 670.53 311.64 664.69 317.15C644.523 336.223 623.913 354.807 602.86 372.9C591.92 338.14 607.97 300.71 605.47 264.36C604.47 250.2 599.47 234.74 586.98 228.06C575.29 221.82 560.35 225.06 548.52 219.06C535.32 212.41 529.9 196.66 519.92 185.76C502.92 167.16 473.41 164.76 449.64 173.16C425.87 181.56 406.44 198.84 387.64 215.69L353.47 246.34C346.8 238.82 351.86 227.28 355.47 217.88C360.85 203.79 362.03 188.6 361.67 173.64C361.38 161.64 357.24 149.79 357.48 138.11C357.96 115.07 376.24 92.55 397.79 85.58Z" fill="#865A61"/>
</g>
<defs>
<clipPath id="clip0">
<rect width="1097.1" height="811.81" fill="white"/>
</clipPath>
</defs>
</svg>
