<svg width="1229" height="629" viewBox="0 0 1229 629" fill="none" xmlns="http://www.w3.org/2000/svg">
<g id="undraw_check_boxes_m3d0 1">
<path id="secondcircle" d="M422.295 170.59C467.745 170.59 504.59 133.745 504.59 88.2948C504.59 42.8447 467.745 6 422.295 6C376.845 6 340 42.8447 340 88.2948C340 133.745 376.845 170.59 422.295 170.59Z" fill="#EFEDED"/>
<path id="thirdcircle" d="M723.295 170.59C768.745 170.59 805.59 133.745 805.59 88.2948C805.59 42.8447 768.745 6 723.295 6C677.845 6 641 42.8447 641 88.2948C641 133.745 677.845 170.59 723.295 170.59Z" fill="#EFEDED"/>
<path id="Vector" d="M100.295 170.59C145.745 170.59 182.59 133.745 182.59 88.2948C182.59 42.8447 145.745 6 100.295 6C54.8447 6 18 42.8447 18 88.2948C18 133.745 54.8447 170.59 100.295 170.59Z" fill="#6C63FF"/>
<path id="secondtick" d="M408.27 121.555L384.295 90.73L398.237 79.885L409.589 94.481L447.938 54L460.761 66.149L408.27 121.555Z" fill="#EFEDED"/>
<path id="firsttick" d="M85.975 120.555L62 89.73L75.942 78.885L87.294 93.481L125.643 53L138.466 65.149L85.975 120.555Z" fill="white"/>
<path id="thirdtick" d="M709.024 121.555L685.049 90.73L698.991 79.885L710.343 94.481L748.692 54L761.515 66.149L709.024 121.555Z" fill="#EFEDED"/>
<g id="female">
<path id="Vector_2" d="M206.744 115.432C200.258 99.7682 199.205 84.9847 208.348 71.8531C208.51 67.4407 209.557 63.1058 211.427 59.1056C213.296 55.1055 215.95 51.5215 219.23 48.5662C222.511 45.611 226.352 43.3447 230.525 41.9018C234.698 40.4589 239.118 39.8688 243.523 40.1664L249.484 40.5692C255.638 40.9689 261.555 43.0929 266.558 46.6982C271.561 50.3035 275.449 55.2445 277.775 60.9557C288.89 88.5235 289.24 125.163 286.466 164.434H204.94C209.782 146.068 212.268 128.831 206.744 115.432Z" fill="#2F2E41"/>
<path id="Vector_3" d="M101.462 163.491L79.9176 153.813C77.7709 152.848 75.8566 151.434 74.3045 149.665C72.7524 147.896 71.5986 145.814 70.9215 143.561C70.2443 141.307 70.0596 138.934 70.3798 136.602C70.7 134.271 71.5177 132.036 72.7774 130.048C74.1705 127.85 76.0662 126.014 78.3081 124.693C80.55 123.371 83.074 122.602 85.6719 122.447C88.2697 122.293 90.8671 122.759 93.2496 123.806C95.6322 124.852 97.7318 126.451 99.3752 128.469L109.328 140.69L155.731 181.844L186.576 161.26L200.555 184.961L150.52 215.185L101.462 163.491Z" fill="#9F616A"/>
<path id="Vector_4" d="M198.309 191.933L181.3 159.387L247.531 129.886L248.105 136.111C248.632 141.84 247.654 147.607 245.265 152.841C242.877 158.075 239.163 162.594 234.49 165.949L198.309 191.933Z" fill="#6C63FF"/>
<path id="Vector_5" d="M284.137 127.941L216.587 183.845L212.704 178.41L231.339 145.023L239.88 141.141C241.926 132.471 236.702 120.845 229.786 108.53L262.397 103.872C263.971 114.448 271.138 122.507 284.137 127.941Z" fill="#9F616A"/>
<path id="Vector_6" d="M365.663 513.832L354.405 530.525L264.726 479.668L277.149 418.33L365.663 513.832Z" fill="#2F2E41"/>
<path id="Vector_7" d="M247.256 593.417L229.01 585.264L224.351 371.743L206.881 255.666L274.82 242.854L288.795 273.135C323.141 320.241 273.073 464.574 247.256 593.417Z" fill="#2F2E41"/>
<path id="Vector_8" d="M248.727 590.516L252.471 598.664C253.174 600.195 253.511 601.87 253.453 603.554C253.395 605.238 252.945 606.885 252.139 608.364C251.332 609.844 250.192 611.115 248.807 612.076C247.423 613.036 245.834 613.661 244.166 613.899L194.668 620.97C192.234 621.318 189.757 620.773 187.694 619.435C185.632 618.097 184.123 616.058 183.448 613.695C182.826 611.518 182.948 609.197 183.794 607.098C184.64 604.999 186.161 603.241 188.118 602.104L229.702 581.291L248.727 590.516Z" fill="#2F2E41"/>
<path id="Vector_9" d="M363.346 510.677L372.289 510.021C373.969 509.898 375.655 510.168 377.213 510.811C378.77 511.455 380.156 512.452 381.26 513.726C382.364 514.999 383.155 516.512 383.571 518.145C383.987 519.778 384.016 521.485 383.655 523.131L372.962 571.975C372.436 574.376 371.059 576.506 369.084 577.971C367.11 579.435 364.672 580.135 362.221 579.94C359.965 579.761 357.833 578.835 356.162 577.308C354.492 575.781 353.378 573.741 352.997 571.51L348.048 525.273L363.346 510.677Z" fill="#2F2E41"/>
<path id="Vector_10" d="M241.433 119.4C258.585 119.4 272.49 105.495 272.49 88.3428C272.49 71.1902 258.585 57.2852 241.433 57.2852C224.28 57.2852 210.375 71.1902 210.375 88.3428C210.375 105.495 224.28 119.4 241.433 119.4Z" fill="#9F616A"/>
<path id="Vector_11" d="M273.267 247.513L205.716 261.489L204.164 216.455C194.382 206.1 217.195 164.625 225.127 145.023L235.221 141.917L218.139 172.975L277.925 124.059L289.572 127.165L292.678 183.845L273.267 247.513Z" fill="#6C63FF"/>
<path id="Vector_12" d="M277.925 274.688L263.277 293.215C261.817 295.061 259.978 296.571 257.883 297.644C255.789 298.717 253.488 299.327 251.137 299.433C248.786 299.539 246.44 299.138 244.257 298.258C242.075 297.378 240.107 296.039 238.488 294.332C236.696 292.444 235.38 290.157 234.646 287.66C233.912 285.163 233.783 282.528 234.268 279.971C234.753 277.414 235.839 275.009 237.437 272.955C239.034 270.9 241.097 269.255 243.455 268.154L257.738 261.489L308.983 226.549L296.56 191.609L322.959 183.845L340.041 239.749L277.925 274.688Z" fill="#9F616A"/>
<path id="Vector_13" d="M280.642 158.222H224.373C226.488 147.587 232.156 137.938 247.657 131.02C258.96 109.417 263.789 89.8223 247.657 76.7298C229.23 72.4848 222.094 64.7764 224.373 54.1795L257.358 48.7444C284.485 72.903 284.795 114.142 280.642 158.222Z" fill="#2F2E41"/>
<path id="Vector_14" d="M329.17 187.727L293.454 196.268L281.031 124.835L287.208 125.801C292.892 126.689 298.245 129.047 302.737 132.642C307.229 136.236 310.703 140.942 312.815 146.293L329.17 187.727Z" fill="#6C63FF"/>
</g>
</g>
</svg>
