<svg width="1101" height="812" viewBox="0 0 1101 812" fill="none" xmlns="http://www.w3.org/2000/svg">
<path d="M518.99 763.29C689.37 763.29 827.49 625.17 827.49 454.79C827.49 284.41 689.37 146.29 518.99 146.29C348.61 146.29 210.49 284.41 210.49 454.79C210.49 625.17 348.61 763.29 518.99 763.29Z" fill="#6C63FF"/>
<path d="M686 621.416C686 646.183 605.28 595.5 520.599 595.5C435.918 595.5 352 645.247 352 620.48C352 606.357 379.299 586.716 418.462 572.451C447.968 561.7 484.201 554 520.599 554C558.029 554 594.695 562.335 623.944 573.778C660.858 588.206 686 607.593 686 621.416Z" fill="white"/>
<path d="M69.55 688.41C69.55 690.94 69.26 692.99 68.91 692.99C68.56 692.99 68.28 690.99 68.28 688.41C68.28 685.83 68.63 687.07 68.99 687.07C69.35 687.07 69.55 685.88 69.55 688.41Z" fill="#FFD037"/>
<path d="M73.01 691.43C70.79 692.64 68.86 693.37 68.69 693.06C68.52 692.75 70.19 691.53 72.41 690.32C74.63 689.11 73.75 689.99 73.92 690.32C74.09 690.65 75.27 690.22 73.01 691.43Z" fill="#FFD037"/>
<path d="M20.11 688.41C20.11 690.94 20.39 692.99 20.74 692.99C21.09 692.99 21.37 690.99 21.37 688.41C21.37 685.83 21.02 687.07 20.67 687.07C20.32 687.07 20.11 685.88 20.11 688.41Z" fill="#FFD037"/>
<path d="M16.6 691.43C18.82 692.64 20.76 693.37 20.93 693.06C21.1 692.75 19.43 691.53 17.21 690.32C14.99 689.11 15.86 689.99 15.7 690.32C15.54 690.65 14.38 690.22 16.6 691.43Z" fill="#FFD037"/>
<path d="M393.122 405.799C400.374 405.408 434.508 402.947 456.189 391.101C459.671 389.139 463.604 388.03 467.641 387.871C474.534 387.682 482.466 390.439 477.388 405.87C469.16 431.111 421.388 459.511 391.738 457.937C363.225 456.423 329.4 445.417 307.064 406.722C304.924 402.999 303.87 398.793 304.013 394.545C304.272 386.735 307.237 376.948 322.544 387.859C343.224 402.592 382.46 405.385 390.33 405.799C391.26 405.846 392.192 405.846 393.122 405.799Z" fill="white"/>
<path d="M660.122 402.799C667.374 402.408 701.508 399.947 723.189 388.101C726.671 386.139 730.604 385.03 734.641 384.871C741.534 384.682 749.466 387.439 744.388 402.87C736.16 428.111 688.388 456.511 658.738 454.937C630.225 453.423 596.4 442.417 574.064 403.722C571.924 399.999 570.87 395.793 571.013 391.545C571.272 383.735 574.237 373.948 589.544 384.859C610.224 399.592 649.46 402.385 657.33 402.799C658.26 402.846 659.192 402.846 660.122 402.799Z" fill="white"/>
</svg>
