<svg width="1101" height="812" viewBox="0 0 1101 812" fill="none" xmlns="http://www.w3.org/2000/svg">
<path d="M518.99 774.79C695.721 774.79 838.99 631.521 838.99 454.79C838.99 278.059 695.721 134.79 518.99 134.79C342.259 134.79 198.99 278.059 198.99 454.79C198.99 631.521 342.259 774.79 518.99 774.79Z" fill="black" stroke="white" stroke-width="23"/>
<path d="M69.55 688.41C69.55 690.94 69.26 692.99 68.91 692.99C68.56 692.99 68.28 690.99 68.28 688.41C68.28 685.83 68.63 687.07 68.99 687.07C69.35 687.07 69.55 685.88 69.55 688.41Z" fill="#FFD037"/>
<path d="M73.01 691.43C70.79 692.64 68.86 693.37 68.69 693.06C68.52 692.75 70.19 691.53 72.41 690.32C74.63 689.11 73.75 689.99 73.92 690.32C74.09 690.65 75.27 690.22 73.01 691.43Z" fill="#FFD037"/>
<path d="M20.11 688.41C20.11 690.94 20.39 692.99 20.74 692.99C21.09 692.99 21.37 690.99 21.37 688.41C21.37 685.83 21.02 687.07 20.67 687.07C20.32 687.07 20.11 685.88 20.11 688.41Z" fill="#FFD037"/>
<path d="M16.6 691.43C18.82 692.64 20.76 693.37 20.93 693.06C21.1 692.75 19.43 691.53 17.21 690.32C14.99 689.11 15.86 689.99 15.7 690.32C15.54 690.65 14.38 690.22 16.6 691.43Z" fill="#FFD037"/>
<circle cx="403.5" cy="390.5" r="64.5" fill="white"/>
<circle cx="635.5" cy="390.5" r="64.5" fill="white"/>
<path d="M530.304 608.561C519.615 609.316 469.321 613.678 437.687 629.74C432.608 632.397 426.838 633.968 420.886 634.312C410.72 634.795 398.933 631.506 405.958 611.383C417.334 578.47 486.968 540.105 530.767 541.115C572.887 542.087 623.133 555.143 657.264 604.392C660.535 609.13 662.218 614.531 662.136 620.027C661.99 630.132 657.911 642.885 634.994 629.311C604.031 610.981 546.049 608.728 534.424 608.464C533.051 608.435 531.675 608.467 530.304 608.561Z" fill="white"/>
</svg>
